<?xml version="1.0" encoding="UTF-8"?>
<svg width="512" height="512" viewBox="0 0 512 512" fill="none" xmlns="http://www.w3.org/2000/svg">
  <rect width="512" height="512" rx="100" fill="url(#paint0_linear)"/>
  <!-- Chemistry Flask -->
  <path d="M256 96C270.9 96 283 108.1 283 123V200.7L360.2 320.5C366.2 329.9 369 340.9 369 352C369 387.3 340.3 416 305 416H207C171.7 416 143 387.3 143 352C143 340.9 145.8 329.9 151.8 320.5L229 200.7V123C229 108.1 241.1 96 256 96Z" fill="white"/>
  <!-- Bubbles -->
  <circle cx="220" cy="280" r="15" fill="url(#paint1_linear)" fill-opacity="0.8"/>
  <circle cx="280" cy="320" r="20" fill="url(#paint1_linear)" fill-opacity="0.8"/>
  <circle cx="240" cy="350" r="12" fill="url(#paint1_linear)" fill-opacity="0.8"/>
  <circle cx="300" cy="270" r="10" fill="url(#paint1_linear)" fill-opacity="0.8"/>
  <!-- Flask Neck -->
  <rect x="229" y="96" width="54" height="40" fill="white"/>
  <defs>
    <linearGradient id="paint0_linear" x1="0" y1="0" x2="512" y2="512" gradientUnits="userSpaceOnUse">
      <stop stop-color="#3B82F6"/>
      <stop offset="1" stop-color="#10B981"/>
    </linearGradient>
    <linearGradient id="paint1_linear" x1="200" y1="250" x2="320" y2="370" gradientUnits="userSpaceOnUse">
      <stop stop-color="#3B82F6"/>
      <stop offset="1" stop-color="#10B981"/>
    </linearGradient>
  </defs>
</svg>
