<?xml version="1.0" encoding="UTF-8"?>
<svg width="512" height="512" viewBox="0 0 512 512" fill="none" xmlns="http://www.w3.org/2000/svg">
  <rect width="512" height="512" rx="100" fill="url(#paint0_linear)"/>
  <path d="M384 256C384 326.692 326.692 384 256 384C185.308 384 128 326.692 128 256C128 185.308 185.308 128 256 128C326.692 128 384 185.308 384 256Z" fill="white" fill-opacity="0.2"/>
  <path d="M128 176C128 158.327 142.327 144 160 144H352C369.673 144 384 158.327 384 176V304C384 321.673 369.673 336 352 336H256L192 400V336H160C142.327 336 128 321.673 128 304V176Z" fill="white"/>
  <path d="M192 208H320M192 272H256" stroke="url(#paint1_linear)" stroke-width="24" stroke-linecap="round" stroke-linejoin="round"/>
  <defs>
    <linearGradient id="paint0_linear" x1="0" y1="0" x2="512" y2="512" gradientUnits="userSpaceOnUse">
      <stop stop-color="#6366F1"/>
      <stop offset="1" stop-color="#EC4899"/>
    </linearGradient>
    <linearGradient id="paint1_linear" x1="192" y1="208" x2="320" y2="272" gradientUnits="userSpaceOnUse">
      <stop stop-color="#6366F1"/>
      <stop offset="1" stop-color="#EC4899"/>
    </linearGradient>
  </defs>
</svg>
